# Blender v2.66 (sub 1) OBJ File: ''
# www.blender.org
mtllib icosphere.mtl
o Icosphere
v 0.000000 -1.000000 0.000000
v 0.723607 -0.447220 0.525725
v -0.276388 -0.447220 0.850649
v -0.894426 -0.447216 0.000000
v -0.276388 -0.447220 -0.850649
v 0.723607 -0.447220 -0.525725
v 0.276388 0.447220 0.850649
v -0.723607 0.447220 0.525725
v -0.723607 0.447220 -0.525725
v 0.276388 0.447220 -0.850649
v 0.894426 0.447216 0.000000
v 0.000000 1.000000 0.000000
v 0.425323 -0.850654 0.309011
v 0.262869 -0.525738 0.809012
v -0.162456 -0.850654 0.499995
v 0.425323 -0.850654 -0.309011
v 0.850648 -0.525736 0.000000
v -0.688189 -0.525736 0.499997
v -0.525730 -0.850652 0.000000
v -0.688189 -0.525736 -0.499997
v -0.162456 -0.850654 -0.499995
v 0.262869 -0.525738 -0.809012
v 0.951058 0.000000 -0.309013
v 0.951058 0.000000 0.309013
v 0.587786 0.000000 0.809017
v 0.000000 0.000000 1.000000
v -0.587786 0.000000 0.809017
v -0.951058 0.000000 0.309013
v -0.951058 0.000000 -0.309013
v -0.587786 0.000000 -0.809017
v 0.000000 0.000000 -1.000000
v 0.587786 0.000000 -0.809017
v 0.688189 0.525736 0.499997
v -0.262869 0.525738 0.809012
v -0.850648 0.525736 0.000000
v -0.262869 0.525738 -0.809012
v 0.688189 0.525736 -0.499997
v 0.525730 0.850652 0.000000
v 0.162456 0.850654 0.499995
v -0.425323 0.850654 0.309011
v -0.425323 0.850654 -0.309011
v 0.162456 0.850654 -0.499995
vt 0.253073 0.608855
vt 0.198353 0.491008
vt 0.329355 0.514913
vt 0.131801 0.391823
vt 0.052221 0.490968
vt 0.335468 0.657216
vt 0.208244 0.721258
vt 0.123503 0.618536
vt 0.021626 0.387281
vt 0.562530 0.067820
vt 0.601592 0.000000
vt 0.670786 0.119563
vt 0.344787 0.193832
vt 0.447271 0.119790
vt 0.447422 0.267665
vt 0.747088 0.498006
vt 0.876924 0.492974
vt 0.797551 0.617741
vt 0.227319 0.067880
vt 0.335468 0.119843
vt 0.239941 0.193684
vt 0.864965 0.055314
vt 0.948047 0.151546
vt 0.802008 0.156820
vt 0.575410 0.193597
vt 0.335714 0.313474
vt 0.667489 0.589158
vt 0.111954 0.119616
vt 0.751546 0.276555
vt 0.881381 0.281588
vt 0.800374 0.387281
vt 0.666479 0.608787
vt 0.608825 0.721219
vt 0.547434 0.618536
vt 0.539135 0.391823
vt 0.618716 0.490968
vt 0.472584 0.491008
vt 0.227062 0.319461
vt 0.266124 0.387281
vt 0.127986 0.387139
vt 0.009318 0.193448
vt 0.111803 0.267490
vt 0.000000 0.313071
vt 0.463454 0.000142
vt 0.258074 0.387344
vt 0.004458 0.608787
vt 0.335468 0.074210
vt 0.795916 0.387281
vt 0.941954 0.392556
vt 0.995543 0.506981
vt 0.062111 0.721219
vt 0.666479 0.446724
vt 0.000245 0.073807
vt 0.128383 0.000000
vt 0.671946 0.185404
vt 0.738613 0.055362
vt 0.562787 0.319400
vt 0.943589 0.623016
vt 0.860507 0.719248
vt 0.335318 0.267718
vt 1.000000 0.267580
vt 0.670936 0.267438
vt 0.670936 0.327837
vt 0.649311 0.387281
vt 0.463851 0.387281
vt 0.734155 0.719200
vt 0.462693 0.721258
vt 0.417864 0.608855
vt 0.946411 0.382005
vt 0.341582 0.514913
vt 0.412863 0.387344
vn 0.102381 -0.943524 0.315090
vn 0.700224 -0.661699 0.268032
vn -0.268034 -0.943523 0.194736
vn -0.268034 -0.943523 -0.194736
vn 0.102381 -0.943524 -0.315090
vn 0.904989 -0.330385 0.268031
vn 0.024747 -0.330386 0.943521
vn -0.889697 -0.330385 0.315095
vn -0.574602 -0.330388 -0.748783
vn 0.534576 -0.330386 -0.777865
vn 0.802609 -0.125627 0.583127
vn -0.306569 -0.125629 0.943521
vn -0.992077 -0.125629 0.000000
vn -0.306569 -0.125629 -0.943521
vn 0.802609 -0.125627 -0.583127
vn 0.408946 0.661698 0.628425
vn -0.471300 0.661699 0.583122
vn -0.700224 0.661699 -0.268032
vn 0.038530 0.661699 -0.748779
vn 0.724042 0.661695 -0.194736
vn -0.038530 -0.661699 0.748779
vn 0.187594 -0.794658 0.577345
vn 0.471300 -0.661699 0.583122
vn 0.700224 -0.661699 -0.268032
vn 0.607060 -0.794656 0.000000
vn 0.331305 -0.943524 0.000000
vn -0.724042 -0.661695 0.194736
vn -0.491120 -0.794657 0.356821
vn -0.408946 -0.661698 0.628425
vn -0.408946 -0.661698 -0.628425
vn -0.491120 -0.794657 -0.356821
vn -0.724042 -0.661695 -0.194736
vn 0.471300 -0.661699 -0.583122
vn 0.187594 -0.794658 -0.577345
vn -0.038530 -0.661699 -0.748779
vn 0.992077 0.125629 -0.000000
vn 0.982246 -0.187599 0.000000
vn 0.904989 -0.330385 -0.268031
vn 0.306569 0.125629 0.943521
vn 0.303531 -0.187597 0.934171
vn 0.534576 -0.330386 0.777865
vn -0.802609 0.125627 0.583127
vn -0.794656 -0.187595 0.577348
vn -0.574602 -0.330388 0.748783
vn -0.802609 0.125627 -0.583127
vn -0.794656 -0.187595 -0.577348
vn -0.889697 -0.330385 -0.315095
vn 0.306569 0.125629 -0.943521
vn 0.303531 -0.187597 -0.934171
vn 0.024747 -0.330386 -0.943521
vn 0.574602 0.330388 0.748783
vn 0.794656 0.187595 0.577348
vn 0.889697 0.330385 0.315095
vn -0.534576 0.330386 0.777865
vn -0.303531 0.187597 0.934171
vn -0.024747 0.330386 0.943521
vn -0.904989 0.330385 -0.268031
vn -0.982246 0.187599 0.000000
vn -0.904989 0.330385 0.268031
vn -0.024747 0.330386 -0.943521
vn -0.303531 0.187597 -0.934171
vn -0.534576 0.330386 -0.777865
vn 0.889697 0.330385 -0.315095
vn 0.794656 0.187595 -0.577348
vn 0.574602 0.330388 -0.748783
vn 0.268034 0.943523 0.194736
vn 0.491120 0.794657 0.356821
vn 0.724042 0.661695 0.194736
vn -0.102381 0.943524 0.315090
vn -0.187594 0.794658 0.577345
vn 0.038530 0.661699 0.748779
vn -0.331305 0.943524 0.000000
vn -0.607060 0.794656 0.000000
vn -0.700224 0.661699 0.268032
vn -0.102381 0.943524 -0.315090
vn -0.187594 0.794658 -0.577345
vn -0.471300 0.661699 -0.583122
vn 0.268034 0.943523 -0.194736
vn 0.491120 0.794657 -0.356821
vn 0.408946 0.661698 -0.628425
usemtl None
s off
f 1/1/1 13/2/1 15/3/1
f 2/4/2 13/2/2 17/5/2
f 1/1/3 15/3/3 19/6/3
f 1/1/4 19/6/4 21/7/4
f 1/1/5 21/7/5 16/8/5
f 2/4/6 17/5/6 24/9/6
f 3/10/7 14/11/7 26/12/7
f 4/13/8 18/14/8 28/15/8
f 5/16/9 20/17/9 30/18/9
f 6/19/10 22/20/10 32/21/10
f 2/22/11 24/23/11 25/24/11
f 3/10/12 26/12/12 27/25/12
f 4/13/13 28/15/13 29/26/13
f 5/16/14 30/18/14 31/27/14
f 6/19/15 32/21/15 23/28/15
f 7/29/16 33/30/16 39/31/16
f 8/32/17 34/33/17 40/34/17
f 9/35/18 35/36/18 41/37/18
f 10/38/19 36/39/19 42/40/19
f 11/41/20 37/42/20 38/43/20
f 15/44/21 14/11/21 3/10/21
f 15/3/22 13/2/22 14/45/22
f 13/2/23 2/4/23 14/45/23
f 17/5/24 16/8/24 6/46/24
f 17/5/25 13/2/25 16/8/25
f 13/2/26 1/1/26 16/8/26
f 19/47/27 18/14/27 4/13/27
f 19/47/28 15/44/28 18/14/28
f 15/44/29 3/10/29 18/14/29
f 21/48/30 20/17/30 5/16/30
f 21/48/31 19/49/31 20/17/31
f 19/49/32 4/50/32 20/17/32
f 16/8/33 22/51/33 6/46/33
f 16/8/34 21/7/34 22/51/34
f 21/48/35 5/16/35 22/52/35
f 24/53/36 23/28/36 11/41/36
f 24/53/37 17/54/37 23/28/37
f 17/54/38 6/19/38 23/28/38
f 26/55/39 25/24/39 7/29/39
f 26/55/40 14/56/40 25/24/40
f 14/56/41 2/22/41 25/24/41
f 28/15/42 27/25/42 8/57/42
f 28/15/43 18/14/43 27/25/43
f 18/14/44 3/10/44 27/25/44
f 30/18/45 29/58/45 9/59/45
f 30/18/46 20/17/46 29/58/46
f 20/17/47 4/50/47 29/58/47
f 32/21/48 31/60/48 10/38/48
f 32/21/49 22/20/49 31/60/49
f 22/52/50 5/16/50 31/27/50
f 25/24/51 33/30/51 7/29/51
f 25/24/52 24/23/52 33/30/52
f 24/23/53 11/61/53 33/30/53
f 27/25/54 34/62/54 8/57/54
f 27/25/55 26/12/55 34/62/55
f 26/55/56 7/29/56 34/63/56
f 29/64/57 35/36/57 9/35/57
f 29/26/58 28/15/58 35/65/58
f 28/15/59 8/57/59 35/65/59
f 31/60/60 36/39/60 10/38/60
f 31/27/61 30/18/61 36/66/61
f 30/18/62 9/59/62 36/66/62
f 23/28/63 37/42/63 11/41/63
f 23/28/64 32/21/64 37/42/64
f 32/21/65 10/38/65 37/42/65
f 39/67/66 38/6/66 12/68/66
f 39/31/67 33/30/67 38/69/67
f 33/30/68 11/61/68 38/69/68
f 40/34/69 39/67/69 12/68/69
f 40/34/70 34/33/70 39/67/70
f 34/63/71 7/29/71 39/31/71
f 41/37/72 40/34/72 12/68/72
f 41/37/73 35/36/73 40/34/73
f 35/36/74 8/32/74 40/34/74
f 42/70/75 41/37/75 12/68/75
f 42/70/76 36/71/76 41/37/76
f 36/71/77 9/35/77 41/37/77
f 38/6/78 42/70/78 12/68/78
f 38/43/79 37/42/79 42/40/79
f 37/42/80 10/38/80 42/40/80
