# Blender v2.66 (sub 6) OBJ File: ''
# www.blender.org
mtllib ship01.mtl
o ship01
v 1.432914 0.533918 -1.442978
v -0.000000 0.000000 -4.313327
v 1.000000 1.000000 -1.000000
v 1.000000 -1.000000 -0.000000
v 4.974638 0.000000 -0.000000
v 0.000000 -1.000000 -0.000000
v -0.000000 -0.620875 -1.378892
v 0.938682 -0.748716 1.014707
v 0.000000 -1.000000 1.000000
v 0.833259 0.842133 0.926252
v 1.000000 1.000000 -0.000000
v 0.000001 1.000000 1.000000
v -0.000000 1.477978 -1.129218
v 2.682742 0.000000 1.951837
v 1.000000 0.000000 1.000000
v 0.622928 0.488697 1.471822
v 0.675767 -0.266855 -1.418752
v 4.231411 -0.043349 0.818051
v 0.924137 0.322339 2.076609
v -0.000000 1.660395 2.123149
v 0.521932 0.200685 2.553896
v 2.127853 -0.288223 2.542266
v 0.000000 0.000000 2.880287
v -0.000000 1.000000 0.000000
v 0.000000 1.561417 2.702003
v -0.000000 1.045136 1.439538
v 1.117196 -0.246035 2.134747
v 0.000000 -0.127281 2.181405
v -1.432914 0.533918 -1.442978
v -1.000000 1.000000 -1.000000
v -4.974638 -0.000000 0.000000
v -1.000000 -1.000000 0.000000
v -0.938682 -0.748716 1.014707
v -0.833259 0.842133 0.926252
v -1.000000 1.000000 0.000000
v -2.682742 -0.000000 1.951837
v -0.622928 0.488697 1.471822
v -1.000000 -0.000000 1.000000
v -0.675767 -0.266855 -1.418752
v -4.231411 -0.043349 0.818051
v -0.924137 0.322339 2.076609
v -0.521932 0.200685 2.553896
v -2.127853 -0.288223 2.542266
v -1.117196 -0.246035 2.134747
vt 0.972527 0.324317
vt 0.790935 0.569690
vt 0.917054 0.289974
vt 0.351856 0.505615
vt 0.282590 0.391484
vt 0.484692 0.000000
vt 0.482240 0.628541
vt 0.337537 0.585353
vt 0.203595 0.898725
vt 0.201837 0.993245
vt 0.109500 0.993754
vt 0.925078 0.077683
vt 0.928867 0.185349
vt 0.828059 0.059372
vt 0.790652 0.303930
vt 0.018122 0.837690
vt 0.000000 0.627866
vt 0.045112 0.587342
vt 0.000000 0.586505
vt 0.320225 0.499507
vt 0.507926 0.452281
vt 0.507496 0.011260
vt 0.652725 0.000000
vt 0.810022 0.845561
vt 0.876424 0.771155
vt 0.874705 0.935330
vt 0.664108 0.921925
vt 0.573672 0.843445
vt 0.508576 0.482799
vt 0.895048 0.607217
vt 0.855288 0.771155
vt 0.834875 0.591089
vt 0.956217 0.639154
vt 0.113320 0.809741
vt 0.168561 0.624075
vt 0.232587 0.587434
vt 0.098042 0.645689
vt 0.816246 0.163996
vt 0.806360 0.879901
vt 0.847591 0.990784
vt 0.858114 0.812354
vt 0.790652 0.771283
vt 0.790652 0.070302
vt 0.625121 0.404506
vt 0.999718 0.771155
vt 1.000000 0.953325
vt 0.962000 0.879681
vt 0.692383 0.782446
vt 0.743130 0.874129
vt 0.596317 0.962726
vt 0.790652 0.751075
vt 0.941174 0.711082
vt 0.916897 0.000000
vt 0.991823 0.712564
vt 0.790718 0.569690
vt 0.664656 0.452281
vt 0.760474 0.474754
vt 0.772134 0.600177
vt 0.507496 0.473763
vt 0.476978 0.679640
vt 0.441055 0.802720
vt 0.326966 0.733008
vt 0.772135 0.676745
vt 0.265879 0.838683
vt 0.341418 0.604268
vt 0.664216 0.676745
vt 0.265328 0.587342
vn 0.467665 0.797216 -0.381755
vn 0.176215 -0.700391 -0.691665
vn 0.000000 -0.964218 -0.265111
vn 0.258593 -0.965986 -0.000000
vn 0.199417 0.959409 0.199417
vn 0.431248 0.902234 -0.000000
vn 0.312073 0.773451 -0.551710
vn 0.447444 -0.874942 -0.185122
vn 0.237252 0.942991 -0.233407
vn 0.955995 0.207453 0.207453
vn 0.240529 -0.956016 0.167869
vn 0.638958 0.418859 0.645205
vn 0.794328 0.557039 -0.242385
vn 0.204296 0.653721 0.728637
vn 0.187234 0.801871 0.567404
vn -0.000000 1.000000 0.000000
vn 0.636682 -0.616028 -0.463838
vn 0.381155 -0.782922 -0.491685
vn 0.000000 -0.970679 0.240381
vn 0.858421 0.210913 0.467578
vn -0.000000 0.920899 0.389800
vn 0.704317 -0.672797 -0.226456
vn 0.189381 0.966790 0.171614
vn 0.049241 0.706249 0.706249
vn 0.732697 0.680555 -0.000000
vn 0.993611 -0.079806 0.079807
vn 0.934154 0.351764 0.060148
vn 0.572705 0.609320 -0.548396
vn 0.200607 0.785116 0.585960
vn 0.666442 0.741657 -0.076159
vn 0.500224 0.098231 0.860306
vn 0.264275 0.857570 0.441285
vn 0.104476 -0.928908 -0.355267
vn 0.438531 0.815178 -0.378384
vn 0.030315 -0.706782 0.706782
vn 0.235374 0.935526 0.263419
vn 0.235236 -0.900184 0.366516
vn 0.989237 -0.083378 -0.120246
vn -0.098715 -0.984807 0.142864
vn -0.060572 -0.802860 0.593083
vn 0.125920 -0.966741 -0.222613
vn -0.104227 -0.978459 0.178198
vn -0.467665 0.797215 -0.381755
vn -0.176215 -0.700391 -0.691665
vn -0.258593 -0.965986 0.000000
vn -0.199416 0.959409 0.199417
vn -0.431248 0.902233 0.000000
vn -0.312073 0.773451 -0.551710
vn -0.447444 -0.874942 -0.185122
vn -0.237252 0.942991 -0.233407
vn -0.955995 0.207453 0.207453
vn -0.240529 -0.956016 0.167869
vn -0.638958 0.418859 0.645205
vn -0.794329 0.557039 -0.242385
vn -0.204296 0.653721 0.728637
vn -0.187234 0.801871 0.567404
vn -0.636682 -0.616028 -0.463838
vn -0.381154 -0.782922 -0.491685
vn -0.858421 0.210913 0.467578
vn -0.704317 -0.672797 -0.226456
vn -0.189381 0.966790 0.171614
vn -0.049241 0.706249 0.706249
vn -0.732697 0.680555 0.000000
vn -0.993610 -0.079807 0.079807
vn -0.934154 0.351764 0.060148
vn -0.572705 0.609320 -0.548396
vn -0.200607 0.785116 0.585960
vn -0.666442 0.741656 -0.076162
vn -0.500224 0.098230 0.860306
vn -0.264275 0.857570 0.441285
vn -0.104476 -0.928908 -0.355267
vn -0.438531 0.815178 -0.378384
vn -0.030315 -0.706782 0.706782
vn -0.235374 0.935526 0.263419
vn -0.235236 -0.900184 0.366516
vn -0.989237 -0.083378 -0.120246
vn 0.098715 -0.984807 0.142864
vn 0.060572 -0.802860 0.593083
vn -0.125920 -0.966741 -0.222613
vn 0.104227 -0.978459 0.178198
usemtl Material
s off
f 1/1/1 2/2/1 3/3/1
f 4/4/2 1/5/2 5/6/2
f 4/4/3 6/7/3 7/8/3
f 8/9/4 9/10/4 6/11/4
f 10/12/5 11/13/5 12/14/5
f 11/13/6 3/3/6 13/15/6
f 14/16/7 15/17/7 16/18/7
f 7/8/8 2/19/8 17/20/8
f 5/21/9 1/22/9 11/23/9
f 10/24/10 15/25/10 11/26/10
f 5/27/11 18/28/11 4/29/11
f 19/30/12 20/31/12 21/32/12
f 16/33/13 20/31/13 19/30/13
f 22/34/14 21/35/14 23/36/14
f 14/16/15 19/37/15 22/34/15
f 11/13/16 24/38/16 12/14/16
f 17/20/17 1/5/17 4/4/17
f 17/20/18 4/4/18 7/8/18
f 4/39/19 8/40/19 6/41/19
f 15/25/20 10/24/20 16/42/20
f 24/38/21 11/13/21 13/15/21
f 2/19/22 1/5/22 17/20/22
f 16/18/23 19/37/23 14/16/23
f 15/43/24 18/44/24 11/23/24
f 11/45/25 1/46/25 3/47/25
f 15/48/26 8/49/26 4/50/26
f 20/31/27 25/51/27 21/32/27
f 16/33/28 26/52/28 20/31/28
f 10/12/29 12/14/29 16/53/29
f 12/54/30 26/52/30 16/33/30
f 21/32/31 25/51/31 23/55/31
f 19/37/32 21/35/32 22/34/32
f 14/56/33 22/57/33 27/58/33
f 2/2/34 13/15/34 3/3/34
f 18/28/35 15/59/35 4/29/35
f 18/44/36 5/21/36 11/23/36
f 9/60/37 8/61/37 27/62/37
f 8/49/38 15/48/38 27/63/38
f 27/62/39 22/64/39 28/65/39
f 28/65/40 9/60/40 27/62/40
f 15/66/41 14/56/41 27/58/41
f 22/64/42 23/67/42 28/65/42
f 29/1/43 30/3/43 2/2/43
f 31/6/44 29/5/44 32/4/44
f 32/4/3 7/8/3 6/7/3
f 33/9/45 6/11/45 9/10/45
f 34/12/46 12/14/46 35/13/46
f 35/13/47 13/15/47 30/3/47
f 36/16/48 37/18/48 38/17/48
f 7/8/49 39/20/49 2/19/49
f 35/23/50 29/22/50 31/21/50
f 34/24/51 35/26/51 38/25/51
f 31/27/52 32/29/52 40/28/52
f 41/30/53 42/32/53 20/31/53
f 37/33/54 41/30/54 20/31/54
f 43/34/55 23/36/55 42/35/55
f 36/16/56 43/34/56 41/37/56
f 35/13/16 12/14/16 24/38/16
f 32/4/57 29/5/57 39/20/57
f 39/20/58 7/8/58 32/4/58
f 32/39/19 6/41/19 33/40/19
f 38/25/59 37/42/59 34/24/59
f 24/38/21 13/15/21 35/13/21
f 2/19/60 39/20/60 29/5/60
f 37/18/61 36/16/61 41/37/61
f 38/43/62 35/23/62 40/44/62
f 30/47/63 29/46/63 35/45/63
f 38/48/64 32/50/64 33/49/64
f 20/31/65 42/32/65 25/51/65
f 37/33/66 20/31/66 26/52/66
f 34/12/67 37/53/67 12/14/67
f 12/54/68 37/33/68 26/52/68
f 42/32/69 23/55/69 25/51/69
f 41/37/70 43/34/70 42/35/70
f 36/56/71 44/58/71 43/57/71
f 2/2/72 30/3/72 13/15/72
f 40/28/73 32/29/73 38/59/73
f 40/44/74 35/23/74 31/21/74
f 9/60/75 44/62/75 33/61/75
f 33/49/76 44/63/76 38/48/76
f 44/62/77 28/65/77 43/64/77
f 28/65/78 44/62/78 9/60/78
f 38/66/79 44/58/79 36/56/79
f 43/64/80 28/65/80 23/67/80
