# Blender v2.66 (sub 1) OBJ File: ''
# www.blender.org
mtllib ship2.mtl
o Cube
v -1.050455 -0.829880 -0.886354
v 1.007472 -0.747203 -1.168311
v 4.016299 0.017540 -1.000017
v -0.999999 1.000000 -1.000000
v 0.774926 0.466701 -1.234273
v 0.000000 -1.000000 -1.000000
v -3.829730 -0.146711 -0.945629
v -1.662894 -0.076937 -5.605867
v -0.101681 -0.169400 -5.361848
v 0.038522 0.495717 -0.903360
v 2.371103 0.230519 -1.104313
v -0.674825 -0.152091 -1.917910
v 2.495424 -1.000000 -1.000000
v 3.873554 0.514968 -0.657129
v 3.620468 -1.530038 -0.802468
v 3.787820 -0.869542 -1.150199
v 1.377126 0.262672 -1.637387
v -0.126350 0.211670 -3.330196
v 1.545361 -0.447133 -2.143190
v -0.148829 -0.315868 -2.477216
v -1.050455 -0.829880 0.886354
v 1.007472 -0.747203 1.168311
v 4.014098 -1.000001 0.000000
v 4.016299 0.017540 1.000017
v -0.999999 1.000000 1.000000
v 0.774926 0.466701 1.234273
v 4.122671 0.303090 0.000000
v 0.000000 -1.000000 1.000000
v -1.000000 -1.000000 0.000000
v -3.829730 -0.146711 0.945629
v 1.000000 -1.000000 -0.000000
v -1.662894 -0.076937 5.605867
v 2.439482 0.441564 0.000000
v -0.101681 -0.169400 5.361848
v 2.495424 -1.000000 0.000000
v 0.038522 0.495717 0.903360
v -1.000000 1.000000 0.000000
v 0.881645 0.566783 0.000000
v 2.371103 0.230519 1.104313
v -0.000000 -1.000000 0.000000
v 0.199074 0.661041 0.000000
v -0.674825 -0.152091 1.917910
v -3.834612 0.695785 0.000000
v 2.495424 -1.000000 1.000000
v -5.018280 -0.084494 0.000000
v 3.873554 0.514968 0.657129
v 3.620468 -1.530038 0.802468
v 4.210827 -0.040318 0.000000
v 3.787820 -0.869542 1.150199
v 1.377126 0.262672 1.637387
v -0.126350 0.211670 3.330196
v 1.545361 -0.447133 2.143190
v -0.148829 -0.315868 2.477216
vt 0.713265 0.339528
vt 0.548763 0.265806
vt 0.583313 0.218305
vt 0.266501 0.199680
vt 0.242812 0.333456
vt 0.016586 0.334279
vt 0.891306 0.463135
vt 0.607563 0.376704
vt 0.541764 0.624934
vt 0.631944 0.625034
vt 0.536341 0.661932
vt 0.444195 0.391750
vt 0.373614 0.398049
vt 0.442071 0.313621
vt 0.364171 0.314788
vt 0.346482 0.238235
vt 0.521803 0.322815
vt 0.449924 0.309230
vt 0.543653 0.139102
vt 0.455510 0.132557
vt 0.000000 0.457259
vt 0.285919 0.375172
vt 0.368307 0.620571
vt 0.436772 0.118654
vt 0.439948 0.235491
vt 0.358872 0.119821
vt 0.507389 0.022427
vt 0.459380 0.000000
vt 0.875530 0.339849
vt 0.999721 0.294955
vt 0.974955 0.397848
vt 0.907983 0.311306
vt 0.451965 0.255224
vt 0.521728 0.407598
vt 0.444195 0.405251
vt 0.345825 0.008902
vt 0.433547 0.000000
vt 0.376984 0.027573
vt 0.680288 0.624934
vt 0.680383 0.746209
vt 0.631944 0.743341
vt 0.891305 0.082719
vt 0.911456 0.000000
vt 1.000000 0.039815
vt 0.444325 0.624934
vt 0.443895 0.712811
vt 0.478816 0.785899
vt 0.444242 0.738307
vt 0.536341 0.728843
vt 0.444195 0.665614
vt 0.459316 0.624934
vt 0.523299 0.653194
vt 0.540310 0.008779
vt 0.516133 0.628312
vt 0.539644 0.731838
vn 0.192018 0.960902 -0.199493
vn -0.067010 -0.996413 -0.051688
vn -0.337854 0.934799 0.109567
vn -0.057567 -0.453622 -0.889333
vn -0.000000 -0.982075 -0.188492
vn 0.243377 -0.969932 0.000000
vn -0.039038 0.984119 -0.173166
vn 0.159073 0.967855 -0.194816
vn -0.051024 -0.997370 -0.051476
vn 0.061117 -0.710392 -0.701148
vn -0.181741 -0.790149 -0.585350
vn -0.014439 -0.953382 -0.301420
vn -0.000000 -0.977382 -0.211484
vn -0.118100 -0.928871 -0.351070
vn 0.161323 0.956489 -0.243113
vn -0.281948 0.876773 0.389583
vn 0.117746 0.979997 -0.160440
vn -0.441001 0.668990 -0.598306
vn -0.231770 -0.957691 -0.170618
vn -0.167496 -0.985873 -0.000000
vn -0.159866 -0.987139 -0.000000
vn 0.136217 0.986420 -0.091763
vn 0.436805 0.899556 0.000000
vn 0.420750 -0.628888 -0.653811
vn -0.000000 -0.834414 0.551138
vn -0.250621 -0.966922 0.047441
vn -0.000000 -0.977381 -0.211484
vn 0.126711 0.587366 -0.799341
vn -0.190924 -0.787021 -0.586639
vn 0.373362 0.640250 -0.671328
vn -0.426195 -0.904631 0.000000
vn -0.242798 0.561647 -0.790950
vn -0.419425 0.905069 0.070230
vn -0.106709 0.994290 -0.000000
vn -0.217177 -0.953220 -0.210251
vn -0.165500 0.879877 -0.445451
vn 0.912261 -0.346308 -0.218747
vn 0.915458 0.370678 -0.156633
vn 0.086551 0.979362 -0.182645
vn 0.169455 0.969017 -0.179698
vn 0.079815 0.992969 -0.087417
vn 0.137159 0.975624 -0.171305
vn 0.080468 0.978108 -0.191909
vn 0.278966 -0.933968 -0.223342
vn 0.960200 -0.196835 -0.198171
vn -0.322835 -0.946082 -0.026575
vn -0.300482 0.711373 -0.635341
vn 0.931004 0.238999 -0.275883
vn -0.132900 0.198624 -0.971023
vn 0.265420 0.938929 -0.219007
vn 0.954523 -0.210024 -0.211604
vn 0.192018 0.960902 0.199493
vn -0.067010 -0.996413 0.051688
vn -0.337854 0.934799 -0.109567
vn -0.057567 -0.453622 0.889333
vn 0.000000 -0.982075 0.188492
vn -0.039038 0.984119 0.173166
vn 0.159073 0.967855 0.194816
vn -0.051024 -0.997370 0.051476
vn 0.061117 -0.710392 0.701148
vn -0.181741 -0.790149 0.585350
vn -0.014439 -0.953382 0.301420
vn -0.000000 -0.977381 0.211484
vn -0.118100 -0.928871 0.351070
vn 0.161323 0.956489 0.243113
vn -0.281948 0.876773 -0.389583
vn 0.117746 0.979997 0.160440
vn -0.441001 0.668990 0.598306
vn -0.231770 -0.957691 0.170618
vn 0.136217 0.986420 0.091763
vn 0.420750 -0.628888 0.653811
vn -0.000000 -0.834414 -0.551138
vn -0.250621 -0.966922 -0.047441
vn 0.000000 -0.977382 0.211484
vn 0.126711 0.587366 0.799341
vn -0.190924 -0.787021 0.586639
vn 0.373362 0.640250 0.671328
vn -0.242798 0.561647 0.790950
vn -0.419425 0.905069 -0.070230
vn -0.217177 -0.953220 0.210251
vn -0.165500 0.879877 0.445451
vn 0.912261 -0.346308 0.218747
vn 0.915458 0.370678 0.156633
vn 0.086551 0.979362 0.182645
vn 0.169455 0.969017 0.179698
vn 0.079815 0.992969 0.087417
vn 0.137159 0.975624 0.171305
vn 0.080468 0.978108 0.191909
vn 0.278966 -0.933968 0.223342
vn 0.960200 -0.196835 0.198171
vn -0.322835 -0.946082 0.026575
vn -0.300482 0.711373 0.635341
vn 0.931004 0.238999 0.275883
vn -0.132900 0.198624 0.971023
vn 0.265420 0.938929 0.219007
vn 0.954523 -0.210024 0.211604
usemtl Material
s off
f 18/1/1 5/2/1 17/3/1
f 19/4/2 20/5/2 9/6/2
f 8/7/3 12/8/3 18/1/3
f 15/9/4 13/10/4 16/11/4
f 29/12/5 1/13/5 40/14/5
f 40/14/6 6/15/6 2/16/6
f 5/2/7 10/17/7 41/18/7
f 11/19/8 5/2/8 33/20/8
f 20/5/9 8/21/9 9/6/9
f 6/15/10 12/22/10 2/16/10
f 1/13/11 7/23/11 12/22/11
f 2/16/12 20/5/12 19/4/12
f 35/24/13 31/25/13 2/16/13
f 13/26/14 2/16/14 19/4/14
f 5/2/15 11/19/15 17/3/15
f 14/27/16 11/19/16 27/28/16
f 9/29/17 17/3/17 11/19/17
f 7/30/18 45/31/18 43/32/18
f 7/23/19 1/13/19 29/12/19
f 13/26/20 35/24/20 2/16/20
f 1/13/21 6/15/21 40/14/21
f 38/33/22 5/2/22 41/18/22
f 4/34/23 37/35/23 10/17/23
f 13/26/24 19/4/24 3/36/24
f 23/37/25 35/24/25 15/38/25
f 12/22/26 8/21/26 20/5/26
f 31/25/27 40/14/27 2/16/27
f 11/39/28 14/40/28 3/41/28
f 6/15/29 1/13/29 12/22/29
f 4/42/30 10/43/30 12/44/30
f 35/24/31 13/26/31 15/38/31
f 4/42/32 12/44/32 7/30/32
f 12/8/33 5/2/33 18/1/33
f 37/35/34 4/34/34 43/45/34
f 45/46/35 7/23/35 29/12/35
f 12/8/36 10/17/36 5/2/36
f 15/47/37 16/48/37 23/49/37
f 3/50/38 14/51/38 48/52/38
f 8/7/39 18/1/39 9/29/39
f 18/1/40 17/3/40 9/29/40
f 5/2/41 38/33/41 33/20/41
f 3/53/42 9/29/42 11/19/42
f 11/19/43 33/20/43 27/28/43
f 19/4/44 9/6/44 3/36/44
f 3/50/45 48/52/45 23/49/45
f 2/16/46 12/22/46 20/5/46
f 43/32/47 4/42/47 7/30/47
f 14/51/48 27/54/48 48/52/48
f 13/10/49 3/55/49 16/11/49
f 37/35/50 41/18/50 10/17/50
f 16/48/51 3/50/51 23/49/51
f 51/1/52 50/3/52 26/2/52
f 52/4/53 34/6/53 53/5/53
f 32/7/54 51/1/54 42/8/54
f 47/9/55 49/11/55 44/10/55
f 29/12/56 40/14/56 21/13/56
f 40/14/6 22/16/6 28/15/6
f 26/2/57 41/18/57 36/17/57
f 39/19/58 33/20/58 26/2/58
f 53/5/59 34/6/59 32/21/59
f 28/15/60 22/16/60 42/22/60
f 21/13/61 42/22/61 30/23/61
f 22/16/62 52/4/62 53/5/62
f 35/24/63 22/16/63 31/25/63
f 44/26/64 52/4/64 22/16/64
f 26/2/65 50/3/65 39/19/65
f 46/27/66 27/28/66 39/19/66
f 34/29/67 39/19/67 50/3/67
f 30/30/68 43/32/68 45/31/68
f 30/23/69 29/12/69 21/13/69
f 44/26/20 22/16/20 35/24/20
f 21/13/21 40/14/21 28/15/21
f 38/33/70 41/18/70 26/2/70
f 25/34/23 36/17/23 37/35/23
f 44/26/71 24/36/71 52/4/71
f 23/37/72 47/38/72 35/24/72
f 42/22/73 53/5/73 32/21/73
f 31/25/74 22/16/74 40/14/74
f 39/39/75 24/41/75 46/40/75
f 28/15/76 42/22/76 21/13/76
f 25/42/77 42/44/77 36/43/77
f 35/24/31 47/38/31 44/26/31
f 25/42/78 30/30/78 42/44/78
f 42/8/79 51/1/79 26/2/79
f 37/35/34 43/45/34 25/34/34
f 45/46/80 29/12/80 30/23/80
f 42/8/81 26/2/81 36/17/81
f 47/47/82 23/49/82 49/48/82
f 24/50/83 48/52/83 46/51/83
f 32/7/84 34/29/84 51/1/84
f 51/1/85 34/29/85 50/3/85
f 26/2/86 33/20/86 38/33/86
f 24/53/87 39/19/87 34/29/87
f 39/19/88 27/28/88 33/20/88
f 52/4/89 24/36/89 34/6/89
f 24/50/90 23/49/90 48/52/90
f 22/16/91 53/5/91 42/22/91
f 43/32/92 30/30/92 25/42/92
f 46/51/93 48/52/93 27/54/93
f 44/10/94 49/11/94 24/55/94
f 37/35/95 36/17/95 41/18/95
f 49/48/96 23/49/96 24/50/96
